P3
30 30
255
129 10 222 141 6 214 154 3 204 166 0 194 175 0 185 183 0 177 192 0 168 197 1 162 202 2 156 207 3 150 212 5 144 214 6 140 216 7 137 219 8 134 219 8 134 219 8 134 219 8 134 216 7 137 214 6 140 212 5 144 207 3 150 202 2 156 197 1 162 192 0 168 183 0 177 175 0 185 166 0 194 154 3 204 141 6 214 129 10 222 
129 10 222 141 6 214 154 3 204 166 0 194 175 0 185 183 0 177 192 0 168 200 1 159 205 3 153 209 4 147 214 6 140 216 7 137 219 8 134 221 9 131 223 11 128 223 11 128 223 11 128 223 11 128 221 9 131 219 8 134 216 7 137 214 6 140 209 4 147 205 3 153 200 1 159 192 0 168 186 0 174 178 0 183 166 0 194 154 3 204 
129 10 222 141 6 214 154 3 204 166 0 194 175 0 185 186 0 174 192 0 168 200 1 159 205 3 153 212 5 144 214 6 140 219 8 134 221 9 131 225 12 125 225 12 125 227 13 122 227 13 122 227 13 122 227 13 122 227 13 122 225 12 125 223 11 128 221 9 131 216 7 137 212 5 144 207 3 150 202 2 156 194 1 165 186 0 174 178 0 183 
129 10 222 141 6 214 154 3 204 166 0 194 175 0 185 186 0 174 192 0 168 200 1 159 207 3 150 212 5 144 216 7 137 221 9 131 223 11 128 227 13 122 229 15 119 229 15 119 231 16 115 231 16 115 231 16 115 231 16 115 231 16 115 229 15 119 227 13 122 225 12 125 223 11 128 219 8 134 216 7 137 212 5 144 205 3 153 200 1 159 
129 10 222 141 6 214 154 3 204 166 0 194 175 0 185 183 0 177 192 0 168 200 1 159 207 3 150 212 5 144 216 7 137 221 9 131 225 12 125 227 13 122 231 16 115 232 18 112 234 20 109 234 20 109 236 21 106 236 21 106 236 21 106 234 20 109 234 20 109 232 18 112 231 16 115 229 15 119 227 13 122 223 11 128 219 8 134 214 6 140 
129 10 222 141 6 214 154 3 204 166 0 194 175 0 185 183 0 177 192 0 168 200 1 159 207 3 150 212 5 144 216 7 137 221 9 131 225 12 125 229 15 119 231 16 115 234 20 109 236 21 106 237 23 103 237 23 103 239 25 100 239 25 100 239 25 100 239 25 100 239 25 100 237 23 103 236 21 106 234 20 109 232 18 112 231 16 115 227 13 122 
129 10 222 141 6 214 154 3 204 163 1 196 175 0 185 183 0 177 192 0 168 200 1 159 205 3 153 212 5 144 216 7 137 221 9 131 225 12 125 229 15 119 232 18 112 234 20 109 237 23 103 239 25 100 240 27 97 240 27 97 242 29 94 242 29 94 242 29 94 242 29 94 242 29 94 242 29 94 240 27 97 240 27 97 239 25 100 237 23 103 
129 10 222 141 6 214 151 3 206 163 1 196 172 0 188 180 0 180 189 0 171 197 1 162 205 3 153 212 5 144 216 7 137 221 9 131 225 12 125 229 15 119 232 18 112 236 21 106 237 23 103 239 25 100 242 29 94 242 29 94 243 31 91 244 33 88 244 33 88 246 35 85 246 35 85 246 35 85 246 35 85 246 35 85 244 33 88 244 33 88 
129 10 222 141 6 214 151 3 206 163 1 196 172 0 188 180 0 180 189 0 171 197 1 162 202 2 156 209 4 147 214 6 140 221 9 131 225 12 125 229 15 119 232 18 112 236 21 106 237 23 103 240 27 97 242 29 94 243 31 91 244 33 88 246 35 85 247 37 82 248 40 79 248 40 79 249 42 76 249 42 76 249 42 76 249 42 76 249 42 76 
129 10 222 138 7 216 151 3 206 160 1 199 169 0 191 178 0 183 186 0 174 194 1 165 202 2 156 207 3 150 214 6 140 219 8 134 223 11 128 227 13 122 231 16 115 234 20 109 237 23 103 240 27 97 242 29 94 244 33 88 246 35 85 247 37 82 248 40 79 249 42 76 250 44 73 250 47 70 250 47 70 251 49 68 251 49 68 252 52 65 
129 10 222 138 7 216 151 3 206 160 1 199 169 0 191 178 0 183 183 0 177 192 0 168 200 1 159 205 3 153 212 5 144 216 7 137 221 9 131 227 13 122 231 16 115 234 20 109 237 23 103 239 25 100 242 29 94 244 33 88 246 35 85 248 40 79 249 42 76 250 44 73 250 47 70 251 49 68 252 52 65 252 54 62 253 57 59 253 60 57 
129 10 222 138 7 216 148 4 209 157 2 201 166 0 194 175 0 185 180 0 180 189 0 171 197 1 162 202 2 156 209 4 147 214 6 140 219 8 134 225 12 125 229 15 119 232 18 112 236 21 106 239 25 100 242 29 94 243 31 91 246 35 85 248 40 79 249 42 76 250 47 70 251 49 68 252 52 65 253 57 59 253 60 57 254 62 54 254 65 52 
129 10 222 138 7 216 148 4 209 154 3 204 163 1 196 172 0 188 178 0 183 186 0 174 192 0 168 200 1 159 205 3 153 212 5 144 216 7 137 221 9 131 225 12 125 229 15 119 234 20 109 237 23 103 240 27 97 242 29 94 244 33 88 247 37 82 249 42 76 250 47 70 251 49 68 252 54 62 253 57 59 254 62 54 254 65 52 254 70 47 
129 10 222 138 7 216 144 5 211 154 3 204 160 1 199 169 0 191 175 0 185 183 0 177 189 0 171 194 1 165 202 2 156 207 3 150 212 5 144 219 8 134 223 11 128 227 13 122 231 16 115 234 20 109 237 23 103 240 27 97 243 31 91 246 35 85 248 40 79 250 44 73 251 49 68 252 54 62 253 60 57 254 65 52 254 68 49 254 73 44 
129 10 222 135 8 218 144 5 211 151 3 206 157 2 201 166 0 194 172 0 188 178 0 183 183 0 177 192 0 168 197 1 162 202 2 156 207 3 150 214 6 140 219 8 134 223 11 128 227 13 122 231 16 115 236 21 106 239 25 100 242 29 94 244 33 88 247 37 82 249 42 76 250 47 70 252 52 65 253 57 59 254 65 52 254 70 47 254 76 42 
129 10 222 135 8 218 141 6 214 148 4 209 154 3 204 160 1 199 166 0 194 175 0 185 180 0 180 186 0 174 192 0 168 197 1 162 202 2 156 207 3 150 214 6 140 219 8 134 223 11 128 227 13 122 231 16 115 236 21 106 239 25 100 242 29 94 244 33 88 248 40 79 250 44 73 251 49 68 253 57 59 254 62 54 254 68 49 254 76 42 
129 10 222 135 8 218 141 6 214 144 5 211 151 3 206 157 2 201 163 1 196 169 0 191 175 0 185 180 0 180 186 0 174 192 0 168 197 1 162 202 2 156 207 3 150 212 5 144 219 8 134 223 11 128 227 13 122 231 16 115 236 21 106 239 25 100 242 29 94 246 35 85 248 40 79 250 47 70 252 52 65 253 60 57 254 65 52 254 73 44 
129 10 222 132 9 220 138 7 216 141 6 214 148 4 209 154 3 204 157 2 201 163 1 196 169 0 191 172 0 188 178 0 183 183 0 177 189 0 171 194 1 165 200 1 159 207 3 150 212 5 144 216 7 137 221 9 131 227 13 122 231 16 115 234 20 109 239 25 100 242 29 94 246 35 85 249 42 76 250 47 70 252 54 62 254 62 54 254 70 47 
129 10 222 132 9 220 135 8 218 138 7 216 144 5 211 148 4 209 151 3 206 157 2 201 160 1 199 166 0 194 172 0 188 178 0 183 180 0 180 186 0 174 192 0 168 197 1 162 205 3 153 209 4 147 214 6 140 219 8 134 225 12 125 229 15 119 234 20 109 239 25 100 242 29 94 246 35 85 249 42 76 251 49 68 253 57 59 254 65 52 
129 10 222 132 9 220 132 9 220 135 8 218 138 7 216 141 6 214 144 5 211 151 3 206 154 3 204 157 2 201 163 1 196 169 0 191 172 0 188 178 0 183 183 0 177 189 0 171 194 1 165 200 1 159 205 3 153 212 5 144 216 7 137 223 11 128 227 13 122 232 18 112 237 23 103 242 29 94 246 35 85 249 42 76 251 49 68 253 60 57 
129 10 222 129 10 222 132 9 220 132 9 220 135 8 218 138 7 216 138 7 216 141 6 214 144 5 211 151 3 206 154 3 204 157 2 201 163 1 196 169 0 191 172 0 188 178 0 183 183 0 177 189 0 171 194 1 165 202 2 156 207 3 150 214 6 140 221 9 131 225 12 125 231 16 115 236 21 106 240 27 97 246 35 85 249 42 76 252 52 65 
129 10 222 129 10 222 129 10 222 129 10 222 129 10 222 132 9 220 132 9 220 135 8 218 138 7 216 141 6 214 144 5 211 148 4 209 151 3 206 157 2 201 160 1 199 166 0 194 172 0 188 178 0 183 183 0 177 189 0 171 197 1 162 202 2 156 209 4 147 216 7 137 223 11 128 229 15 119 234 20 109 240 27 97 244 33 88 249 42 76 
129 10 222 126 12 224 126 12 224 126 12 224 126 12 224 126 12 224 126 12 224 126 12 224 129 10 222 129 10 222 132 9 220 135 8 218 138 7 216 144 5 211 148 4 209 154 3 204 157 2 201 163 1 196 169 0 191 178 0 183 183 0 177 192 0 168 197 1 162 205 3 153 212 5 144 219 8 134 227 13 122 232 18 112 239 25 100 244 33 88 
129 10 222 126 12 224 122 13 226 119 14 228 119 14 228 119 14 228 116 16 230 116 16 230 119 14 228 119 14 228 122 13 226 122 13 226 126 12 224 129 10 222 135 8 218 138 7 216 144 5 211 148 4 209 154 3 204 163 1 196 169 0 191 175 0 185 183 0 177 192 0 168 200 1 159 207 3 150 216 7 137 223 11 128 231 16 115 237 23 103 
129 10 222 122 13 226 119 14 228 116 16 230 113 18 232 110 19 234 110 19 234 107 21 235 107 21 235 107 21 235 110 19 234 110 19 234 113 18 232 116 16 230 119 14 228 122 13 226 126 12 224 132 9 220 138 7 216 144 5 211 151 3 206 160 1 199 166 0 194 175 0 185 183 0 177 192 0 168 202 2 156 212 5 144 219 8 134 227 13 122 
129 10 222 122 13 226 116 16 230 113 18 232 107 21 235 104 23 237 101 25 239 98 26 240 98 26 240 98 26 240 98 26 240 98 26 240 98 26 240 101 25 239 104 23 237 107 21 235 110 19 234 113 18 232 119 14 228 126 12 224 132 9 220 141 6 214 148 4 209 157 2 201 166 0 194 175 0 185 186 0 174 194 1 165 205 3 153 214 6 140 
129 10 222 119 14 228 113 18 232 107 21 235 101 25 239 98 26 240 92 30 243 89 32 244 86 35 245 86 35 245 83 37 246 83 37 246 83 37 246 86 35 245 86 35 245 89 32 244 92 30 243 95 28 242 101 25 239 107 21 235 113 18 232 119 14 228 126 12 224 135 8 218 144 5 211 154 3 204 166 0 194 178 0 183 186 0 174 200 1 159 
129 10 222 119 14 228 110 19 234 101 25 239 95 28 242 89 32 244 83 37 246 80 39 248 77 41 249 74 44 249 71 46 250 68 49 251 68 49 251 68 49 251 68 49 251 71 46 250 74 44 249 77 41 249 80 39 248 86 35 245 92 30 243 98 26 240 104 23 237 113 18 232 122 13 226 132 9 220 141 6 214 154 3 204 166 0 194 178 0 183 
129 10 222 116 16 230 107 21 235 98 26 240 89 32 244 83 37 246 74 44 249 68 49 251 66 51 252 60 56 253 57 59 253 55 61 254 55 61 254 52 64 254 52 64 254 55 61 254 55 61 254 57 59 253 60 56 253 66 51 252 68 49 251 74 44 249 83 37 246 89 32 244 98 26 240 107 21 235 119 14 228 129 10 222 141 6 214 154 3 204 
129 10 222 116 16 230 104 23 237 92 30 243 83 37 246 74 44 249 66 51 252 60 56 253 55 61 254 50 67 254 45 73 254 42 75 254 40 78 254 38 81 254 38 81 254 38 81 254 38 81 254 40 78 254 42 75 254 45 73 254 50 67 254 55 61 254 60 56 253 66 51 252 74 44 249 83 37 246 92 30 243 104 23 237 116 16 230 129 10 222 
